<svg xmlns="http://www.w3.org/2000/svg" width="120.51" height="20.54"><path d="M11.804 19.708a21.593 21.593 0 0 1-2.548.533 20.938 20.938 0 0 1-3.276.247 7.779 7.779 0 0 1-2.9-.468 4.4 4.4 0 0 1-1.832-1.313 5.125 5.125 0 0 1-.962-2.015A10.838 10.838 0 0 1 0 14.118V6.5h3.874v7.15a5.541 5.541 0 0 0 .494 2.7 1.965 1.965 0 0 0 1.842.836q.416 0 .884-.039t.836-.091V6.5h3.874Zm12.116.832q-4.394 0-6.695-2.444t-2.3-6.942a10.675 10.675 0 0 1 .7-3.991 8.6 8.6 0 0 1 1.924-2.964 8.044 8.044 0 0 1 2.912-1.833 10.5 10.5 0 0 1 3.666-.624 11.75 11.75 0 0 1 2.08.169 13.487 13.487 0 0 1 1.638.39 8.083 8.083 0 0 1 1.17.455q.468.234.676.364l-1.17 3.276a9.815 9.815 0 0 0-1.937-.754 9.243 9.243 0 0 0-2.509-.312 5.542 5.542 0 0 0-1.833.312 4.145 4.145 0 0 0-1.586 1 4.987 4.987 0 0 0-1.1 1.781 7.472 7.472 0 0 0-.42 2.653 9.466 9.466 0 0 0 .274 2.327 4.935 4.935 0 0 0 .884 1.859 4.244 4.244 0 0 0 1.6 1.235 5.691 5.691 0 0 0 2.392.455 10.9 10.9 0 0 0 1.586-.1 11.776 11.776 0 0 0 1.248-.247 6.553 6.553 0 0 0 .96-.329q.416-.182.754-.338l1.118 3.25a9.5 9.5 0 0 1-2.418.936 14.093 14.093 0 0 1-3.614.416Zm13.858-3.064q.572 0 1.092-.026a7.6 7.6 0 0 0 .832-.078V14.43q-.234-.052-.7-.1a7.818 7.818 0 0 0-.858-.052 7.678 7.678 0 0 0-1.027.065 2.683 2.683 0 0 0-.845.247 1.45 1.45 0 0 0-.572.494 1.376 1.376 0 0 0-.208.78 1.329 1.329 0 0 0 .611 1.261 3.376 3.376 0 0 0 1.675.351Zm-.312-11.34a8.971 8.971 0 0 1 2.86.39 4.442 4.442 0 0 1 1.833 1.118 4.109 4.109 0 0 1 .975 1.768 8.721 8.721 0 0 1 .286 2.314v8.06q-.832.182-2.314.429a22.236 22.236 0 0 1-3.588.247 11.375 11.375 0 0 1-2.408-.234 5.22 5.22 0 0 1-1.859-.767 3.51 3.51 0 0 1-1.2-1.391 4.8 4.8 0 0 1-.416-2.106 3.991 3.991 0 0 1 .481-2.028 3.7 3.7 0 0 1 1.294-1.326 5.816 5.816 0 0 1 1.846-.715 10.356 10.356 0 0 1 2.154-.219 12.252 12.252 0 0 1 1.339.065 5.96 5.96 0 0 1 .949.169v-.364a2.144 2.144 0 0 0-.6-1.586 2.9 2.9 0 0 0-2.08-.6 13.244 13.244 0 0 0-1.95.143 8.365 8.365 0 0 0-1.664.4l-.494-3.12q.338-.1.845-.221t1.1-.208q.6-.091 1.261-.156t1.35-.062Zm17.706 3.8q-.52-.13-1.222-.273a7.551 7.551 0 0 0-1.508-.143 7 7 0 0 0-.871.065 5.126 5.126 0 0 0-.767.143v10.448H46.93V7.228a23.272 23.272 0 0 1 2.457-.689 14.157 14.157 0 0 1 3.159-.325q.312 0 .754.039t.884.1q.442.065.884.156a4.16 4.16 0 0 1 .754.221Zm5.772 3.3a4.746 4.746 0 0 0 .806 2.886 2.784 2.784 0 0 0 2.392 1.092q.52 0 .962-.039t.728-.091v-7.048a3.366 3.366 0 0 0-.949-.39A4.573 4.573 0 0 0 63.7 9.49q-2.756 0-2.756 3.744Zm8.766 6.498q-.52.156-1.2.3t-1.417.242q-.741.1-1.508.169t-1.469.069a8.6 8.6 0 0 1-3.016-.494 6.059 6.059 0 0 1-2.236-1.417 6.149 6.149 0 0 1-1.391-2.236 8.533 8.533 0 0 1-.481-2.951 10.1 10.1 0 0 1 .416-3 6.535 6.535 0 0 1 1.2-2.275 5.119 5.119 0 0 1 1.911-1.43 6.407 6.407 0 0 1 2.587-.494 6.085 6.085 0 0 1 1.443.156 7.81 7.81 0 0 1 1.287.442V.627L69.71.003Zm10.3-12.532q.754-.208 2.028-.468a15.9 15.9 0 0 1 3.12-.26 6.5 6.5 0 0 1 2.561.442 3.934 3.934 0 0 1 1.63 1.26 5.145 5.145 0 0 1 .871 1.963 11.389 11.389 0 0 1 .26 2.522v7.515h-1.69v-6.968a12.73 12.73 0 0 0-.195-2.418 4.032 4.032 0 0 0-.65-1.614 2.527 2.527 0 0 0-1.2-.9 5.432 5.432 0 0 0-1.859-.273 14.22 14.22 0 0 0-2.067.13 6.334 6.334 0 0 0-1.131.234v11.809h-1.69Zm13.98 6.24a8.534 8.534 0 0 1 .507-3.081 6.787 6.787 0 0 1 1.326-2.2 5.22 5.22 0 0 1 1.872-1.313 5.7 5.7 0 0 1 2.171-.429 5.069 5.069 0 0 1 3.939 1.612 7.189 7.189 0 0 1 1.469 4.966q0 .208-.013.416t-.039.39h-9.438a5.945 5.945 0 0 0 1.222 3.8 4.561 4.561 0 0 0 3.64 1.326 7.355 7.355 0 0 0 2.184-.26 9.116 9.116 0 0 0 1.17-.442l.31 1.455a7.025 7.025 0 0 1-1.363.494 8.614 8.614 0 0 1-2.353.286 7.834 7.834 0 0 1-3.016-.52 5.4 5.4 0 0 1-2.054-1.456 5.756 5.756 0 0 1-1.17-2.223 10.34 10.34 0 0 1-.364-2.821Zm9.542-1.066a5.339 5.339 0 0 0-.988-3.276 3.2 3.2 0 0 0-2.652-1.17 3.531 3.531 0 0 0-1.625.364 4.127 4.127 0 0 0-1.248.975 4.529 4.529 0 0 0-.832 1.417 5.812 5.812 0 0 0-.351 1.69Zm16.978 1.092a8.69 8.69 0 0 1-.455 2.886 6.436 6.436 0 0 1-1.274 2.21 5.8 5.8 0 0 1-1.937 1.412 5.911 5.911 0 0 1-2.47.507 5.911 5.911 0 0 1-2.47-.507 5.8 5.8 0 0 1-1.937-1.417 6.436 6.436 0 0 1-1.274-2.21 8.69 8.69 0 0 1-.455-2.886 8.69 8.69 0 0 1 .455-2.886 6.58 6.58 0 0 1 1.274-2.223 5.722 5.722 0 0 1 1.937-1.43 5.911 5.911 0 0 1 2.47-.507 5.911 5.911 0 0 1 2.47.507 5.722 5.722 0 0 1 1.937 1.43 6.58 6.58 0 0 1 1.274 2.223 8.69 8.69 0 0 1 .455 2.891Zm-1.794 0a6.345 6.345 0 0 0-1.17-4.017 3.814 3.814 0 0 0-3.172-1.5 3.814 3.814 0 0 0-3.172 1.5 6.345 6.345 0 0 0-1.17 4.017 6.289 6.289 0 0 0 1.17 4 3.827 3.827 0 0 0 3.172 1.482 3.827 3.827 0 0 0 3.172-1.474 6.289 6.289 0 0 0 1.17-4.008Z" fill="#fff" opacity=".9"/></svg>