<?xml version="1.0" standalone="no"?>
<!DOCTYPE svg PUBLIC "-//W3C//DTD SVG 20010904//EN"
 "http://www.w3.org/TR/2001/REC-SVG-20010904/DTD/svg10.dtd">
<svg version="1.0" xmlns="http://www.w3.org/2000/svg"
 width="680.000000pt" height="680.000000pt" viewBox="0 0 680.000000 680.000000"
 preserveAspectRatio="xMidYMid meet">

<g transform="translate(0.000000,680.000000) scale(0.100000,-0.100000)"
fill="#000000" stroke="none">
<path d="M3360 6392 l-35 -107 -117 -3 c-65 -1 -118 -6 -118 -10 0 -4 41 -36
90 -71 50 -35 90 -70 90 -78 0 -7 -14 -56 -31 -109 -17 -53 -28 -98 -26 -101
3 -2 45 25 93 61 49 36 91 66 94 66 3 0 45 -30 94 -66 48 -36 90 -63 93 -61 2
3 -9 48 -26 101 -17 53 -31 102 -31 109 0 8 40 43 90 78 49 35 90 67 90 72 0
4 -53 7 -118 7 l-119 0 -34 110 c-19 60 -36 110 -39 110 -3 0 -21 -49 -40
-108z"/>
<path d="M1830 6067 c0 -9 9 -55 20 -102 11 -47 20 -94 20 -103 0 -12 -34 -37
-101 -76 -55 -32 -99 -60 -97 -61 2 -2 53 -8 113 -15 61 -6 113 -14 117 -18 4
-4 18 -56 30 -115 12 -59 25 -107 28 -107 3 0 23 42 44 93 22 50 45 98 52 106
10 11 30 11 119 1 58 -7 108 -10 111 -8 2 3 -32 37 -76 77 -44 40 -80 81 -80
91 0 10 18 57 40 106 22 48 39 91 38 95 -2 5 -45 -16 -96 -46 -51 -30 -98 -55
-103 -55 -6 0 -49 34 -95 76 -51 47 -84 70 -84 61z"/>
<path d="M4885 6005 c-44 -41 -85 -74 -92 -75 -7 0 -54 25 -105 55 -51 30 -94
51 -96 46 -1 -4 16 -47 38 -95 22 -49 40 -95 40 -104 1 -10 -37 -52 -82 -95
l-83 -78 80 8 c44 4 98 7 120 8 l39 0 46 -102 c25 -56 47 -103 50 -103 3 0 16
48 28 107 12 59 26 111 30 115 4 4 57 12 117 18 61 7 111 13 113 15 2 1 -42
29 -97 61 -56 32 -101 64 -101 71 0 8 9 56 21 109 11 52 19 99 17 104 -2 5
-39 -25 -83 -65z"/>
<path d="M2850 4611 c-7 -17 -18 -35 -25 -41 -7 -5 -61 -17 -121 -25 -83 -12
-114 -21 -131 -37 -13 -12 -23 -27 -23 -33 0 -7 -69 -19 -197 -34 -109 -13
-213 -25 -230 -27 -50 -7 -56 -30 -29 -110 l23 -69 166 -50 c91 -27 168 -53
172 -56 15 -16 38 -193 45 -359 5 -120 13 -201 23 -230 9 -25 25 -99 37 -165
12 -66 45 -191 73 -278 l50 -159 77 -83 c68 -75 79 -94 104 -167 15 -46 43
-122 63 -171 l36 -87 -44 -71 -44 -71 -116 -38 c-65 -21 -151 -55 -193 -74
-42 -20 -79 -36 -83 -36 -18 0 -403 -253 -447 -294 l-31 -29 -89 94 c-299 316
-482 678 -561 1114 -25 138 -31 453 -11 595 20 145 21 137 -11 143 -45 9 -181
34 -272 51 -47 9 -101 21 -121 26 -20 5 -63 14 -96 19 -32 5 -97 17 -144 26
-89 17 -257 45 -276 45 -11 0 -23 -61 -46 -225 -17 -121 -17 -581 0 -705 31
-225 81 -438 151 -641 39 -114 116 -305 131 -324 4 -5 29 -53 55 -105 64 -126
212 -349 321 -485 505 -626 1228 -1020 2039 -1110 151 -17 483 -20 623 -5 636
68 1215 317 1697 732 208 179 386 384 550 633 260 394 403 791 477 1315 17
124 17 573 0 695 -23 166 -35 225 -46 225 -19 0 -187 -28 -276 -45 -47 -9
-112 -21 -144 -26 -33 -5 -76 -14 -96 -19 -20 -5 -74 -17 -121 -26 -77 -14
-203 -38 -273 -51 -28 -5 -28 -7 -22 -52 24 -168 28 -233 23 -401 -8 -263 -48
-472 -133 -694 l-38 -98 -28 33 c-15 19 -28 37 -28 42 0 12 -69 188 -94 243
-14 28 -39 62 -57 75 -17 13 -82 72 -143 131 l-112 108 -110 9 c-125 10 -164
22 -164 49 0 14 -25 31 -97 65 -54 25 -115 50 -136 56 -23 6 -60 30 -91 59
-48 46 -64 54 -207 100 -213 70 -445 138 -510 151 -45 8 -64 19 -114 66 -33
31 -60 63 -60 73 -3 42 -7 51 -32 88 -14 21 -30 58 -34 82 -5 24 -23 62 -42
85 -23 29 -43 75 -66 152 -33 114 -71 182 -141 259 -32 35 -38 49 -42 99 -3
33 -11 65 -20 73 -14 14 -18 12 -39 -22 l-23 -37 -10 38 c-14 49 -30 54 -46
16z m1844 -1718 c14 -38 30 -90 35 -118 5 -28 17 -54 26 -60 48 -28 63 -48 80
-105 15 -48 26 -67 51 -83 32 -21 44 -58 44 -136 0 -18 13 -40 41 -66 43 -42
67 -83 89 -152 l13 -42 -57 -70 c-81 -99 -77 -97 -139 -75 l-52 19 3 275 c2
151 0 280 -5 286 -4 7 -24 18 -43 26 -34 15 -36 18 -79 164 -24 82 -50 166
-57 187 -14 36 -13 37 5 28 11 -6 31 -41 45 -78z m-1044 -105 c30 -85 105
-212 143 -244 35 -29 163 -94 185 -94 24 0 8 -31 -64 -128 -67 -91 -70 -93
-104 -88 -19 2 -116 18 -215 35 -99 17 -208 34 -242 37 -71 8 -65 -2 -103 154
-21 87 -30 302 -15 363 l7 27 193 0 192 0 23 -62z m-611 -81 c29 -71 50 -157
38 -157 -12 0 -67 140 -82 209 -12 54 10 29 44 -52z m1154 -90 c112 -114 218
-175 332 -193 39 -5 48 -11 68 -48 14 -26 31 -42 45 -44 22 -3 22 -6 22 -138
0 -74 -3 -134 -7 -134 -5 0 -42 9 -83 20 -41 11 -156 36 -255 55 -242 46 -285
55 -285 64 0 8 30 51 133 194 66 92 67 86 -25 186 -32 35 -58 69 -58 75 0 14
20 36 32 36 4 0 41 -33 81 -73z m-2772 -781 c19 -4 29 -14 34 -33 8 -32 42
-73 62 -73 18 0 16 30 -4 52 -9 10 -13 21 -10 25 11 10 95 -81 102 -110 15
-58 -43 -127 -106 -127 -44 0 -107 62 -123 120 l-7 25 25 -27 c28 -31 56 -37
56 -12 0 8 -13 29 -29 45 -16 16 -37 29 -45 29 -12 0 -16 11 -16 49 0 53 -4
50 61 37z m4019 -36 c0 -37 -4 -50 -14 -50 -16 0 -76 -56 -76 -71 0 -5 7 -12
17 -16 11 -4 24 3 40 23 26 32 31 18 9 -25 -22 -41 -83 -91 -112 -91 -62 0
-122 70 -108 126 7 29 83 114 102 114 9 0 9 -5 0 -20 -7 -11 -16 -20 -20 -20
-5 0 -8 -9 -8 -20 0 -11 6 -20 14 -20 19 0 66 57 66 80 0 14 11 21 43 28 23 6
43 10 45 11 1 1 2 -21 2 -49z m-2009 -154 c52 -10 47 -56 -8 -77 -28 -10 -80
7 -93 31 -13 25 -15 21 25 64 19 21 36 46 37 55 1 9 3 -3 5 -25 4 -37 7 -42
34 -48z m-1811 -102 c0 -3 -7 -1 -15 6 -8 7 -15 17 -15 22 0 5 7 3 15 -6 8 -8
15 -18 15 -22z m3590 22 c0 -2 -8 -10 -17 -17 -16 -13 -17 -12 -4 4 13 16 21
21 21 13z m-3466 -70 c7 -28 60 -71 76 -61 18 11 11 32 -16 50 -35 22 -24 30
18 12 44 -18 98 -81 98 -113 0 -38 -30 -82 -67 -99 -45 -22 -90 -7 -137 46
-41 44 -49 75 -12 39 24 -21 56 -22 56 -1 0 15 -60 61 -81 61 -12 0 -21 9 -24
28 -14 66 -17 62 35 62 42 0 49 -3 54 -24z m3410 -13 c-9 -49 -11 -53 -34 -53
-11 0 -34 -13 -52 -29 -26 -23 -30 -32 -21 -42 13 -13 24 -9 63 18 l25 18 -19
-30 c-39 -61 -106 -100 -151 -89 -29 7 -72 55 -81 89 -11 46 52 122 116 139
l25 7 -27 -23 c-29 -25 -35 -42 -18 -53 16 -10 57 21 75 55 14 27 21 30 61 30
l45 0 -7 -37z m-1736 -11 c2 -7 -6 -12 -17 -12 -21 0 -27 11 -14 24 9 9 26 2
31 -12z m2 -41 c0 -14 -18 -23 -30 -16 -6 4 -8 11 -5 16 8 12 35 12 35 0z
m126 -53 c10 -15 -20 -35 -83 -55 -52 -16 -63 -26 -43 -38 22 -13 10 -35 -20
-35 -26 0 -29 3 -27 30 1 16 8 30 15 30 17 0 15 47 -2 53 -17 7 -56 -2 -73
-16 -20 -15 -16 -57 5 -58 12 0 9 -3 -8 -10 -14 -5 -32 -24 -41 -42 -15 -31
-77 -82 -87 -72 -3 3 12 20 34 39 50 43 39 56 -20 23 -25 -14 -48 -22 -51 -17
-3 4 25 21 61 36 53 24 66 34 71 56 11 54 44 74 133 81 99 8 129 7 136 -5z
m-1601 -98 c3 -5 2 -10 -4 -10 -5 0 -13 5 -16 10 -3 6 -2 10 4 10 5 0 13 -4
16 -10z m2930 0 c-3 -5 -11 -10 -16 -10 -6 0 -7 5 -4 10 3 6 11 10 16 10 6 0
7 -4 4 -10z m-2748 -77 c27 -14 35 -15 45 -4 11 10 7 17 -17 37 -38 30 -12 33
43 5 54 -28 76 -56 75 -98 -2 -71 -62 -120 -127 -102 -43 12 -139 93 -98 82
12 -3 25 -9 28 -14 9 -15 44 -10 44 6 0 19 -57 55 -88 55 -17 0 -27 9 -38 35
-20 50 -19 54 29 57 34 2 45 -1 57 -19 8 -12 29 -30 47 -40z m2563 62 c0 -2
-13 -11 -30 -20 -30 -15 -39 -38 -20 -50 14 -9 65 20 82 47 13 20 22 23 57 20
44 -4 47 -11 30 -61 -8 -23 -17 -31 -36 -31 -29 0 -80 -28 -88 -47 -8 -22 20
-26 55 -8 31 16 31 16 20 -4 -24 -46 -117 -85 -163 -69 -52 19 -83 99 -57 148
12 23 73 61 114 70 17 5 32 8 34 9 1 1 2 -1 2 -4z m-2093 -204 c55 -26 77 -60
68 -107 -8 -44 -54 -94 -87 -94 -29 1 -90 23 -124 45 -33 21 -26 28 15 14 25
-9 35 -9 44 0 20 20 -28 51 -77 51 -35 0 -44 4 -59 29 -24 41 -22 49 21 62 36
10 41 9 67 -15 26 -24 73 -35 88 -20 10 10 -5 34 -22 34 -9 0 -23 5 -31 10
-28 18 53 10 97 -9z m1686 3 c-18 -8 -33 -21 -33 -29 0 -25 55 -18 89 11 28
23 33 24 71 13 22 -7 40 -13 40 -15 0 -2 -9 -19 -21 -38 -18 -30 -27 -36 -55
-36 -42 0 -97 -26 -91 -43 4 -13 29 -14 67 -3 25 7 25 7 -4 -17 -36 -31 -99
-50 -137 -42 -54 12 -87 102 -58 157 14 26 85 58 129 57 l35 -1 -32 -14z
m-1968 -4 c3 -6 -1 -7 -9 -4 -18 7 -21 14 -7 14 6 0 13 -4 16 -10z m1090 -108
c-10 -10 -25 21 -25 51 0 16 6 38 13 50 11 20 12 16 15 -37 2 -32 0 -61 -3
-64z m1105 114 c0 -2 -7 -7 -16 -10 -8 -3 -12 -2 -9 4 6 10 25 14 25 6z
m-1521 -107 c85 -18 117 -91 72 -166 -25 -41 -65 -49 -135 -29 -65 19 -89 42
-32 32 29 -6 38 -4 43 10 9 25 -16 35 -75 31 -49 -3 -54 -2 -77 29 -27 35 -23
44 28 63 22 9 33 7 60 -9 42 -26 87 -27 87 -1 0 14 -10 21 -37 26 -32 6 -35 9
-18 15 27 11 27 11 84 -1z m906 1 c17 -6 14 -9 -18 -15 -28 -5 -37 -12 -35
-24 5 -25 56 -26 90 -1 26 19 33 20 58 10 47 -20 52 -32 25 -66 -22 -29 -28
-31 -72 -27 -32 3 -54 0 -67 -10 -28 -21 -11 -39 30 -31 41 8 44 0 7 -19 -77
-39 -156 -26 -179 29 -32 75 -10 125 64 148 54 17 69 18 97 6z m-1170 -50 c8
-13 -5 -13 -25 0 -13 8 -13 10 2 10 9 0 20 -4 23 -10z m1375 0 c-20 -13 -33
-13 -25 0 3 6 14 10 23 10 15 0 15 -2 2 -10z m-680 -29 c13 -25 13 -208 0
-216 -5 -3 -10 -1 -10 4 0 15 -27 14 -33 -1 -3 -7 -6 31 -6 84 -1 122 21 180
49 129z m-230 -57 c0 -2 -18 -4 -40 -4 -22 0 -40 3 -40 8 0 4 18 6 40 4 22 -2
40 -6 40 -8z m500 6 c0 -5 -19 -9 -42 -9 l-43 2 40 7 c22 4 41 8 43 9 1 0 2
-3 2 -9z"/>
</g>
</svg>
